<svg width="447" height="468" viewBox="0 0 447 468" fill="none" xmlns="http://www.w3.org/2000/svg">
<path d="M264.025 38.6209C264.025 38.6209 395.412 59.2134 385.449 246.748C385.413 247.443 400.641 257.57 401.833 258.652C412.452 268.272 421.36 280.592 425.256 295.003C439.128 346.322 389.532 399.199 349.426 413.234C334.445 418.476 318.61 421.021 302.745 421.483C199.606 424.492 63.0549 358.828 56.0417 230.59C55.7905 225.989 55.7285 221.383 55.8467 216.788C56.4684 192.439 62.3352 168.725 71.1773 146.706C71.1733 146.707 128.575 4.0891 264.025 38.6209Z" fill="#EFCC9F"/>
<g style="mix-blend-mode:multiply" opacity="0.5">
<path d="M388.775 248.727C387.352 252.219 385.931 256.682 385.534 259.234C383.84 270.182 387.579 281.486 394.074 289.612C400.242 297.328 409.05 302.332 417.58 304.219C420.46 304.857 423.947 305.183 426.996 305.286C423.792 273.583 398.023 254.561 388.775 248.727Z" fill="#FBC8BE"/>
</g>
<g style="mix-blend-mode:multiply" opacity="0.5">
<path d="M203.57 332.051C227.976 326.791 243.128 301.034 237.414 274.52C231.7 248.006 207.284 230.776 182.879 236.036C158.474 241.295 143.321 267.052 149.035 293.566C154.749 320.08 179.165 337.31 203.57 332.051Z" fill="#FBC8BE"/>
</g>
<path opacity="0.3" d="M323.05 257.889C323.05 257.889 343.892 238.025 360.027 256.701L323.05 257.889Z" fill="#A3734F"/>
<path d="M128.714 356.869C59.3349 391.699 -3.63456 304.357 16.5348 255.26C29.4008 223.943 66.9146 221.508 88.6526 250.114C101.481 266.997 111.862 288.577 117.756 309.222" fill="#EFCC9F"/>
<path opacity="0.3" d="M71.5703 278.927C80.4971 288.026 87.6728 301.52 96.493 309.047C94.8625 296.452 92.2606 283.002 86.1531 271.651C79.9517 260.123 68.6741 250.626 57.1912 251.409C42.9604 252.38 31.2435 268.982 29.7371 284.035C30.6376 275.027 48.7265 268.931 55.631 269.784C66.4427 290.197 70.6292 330.428 70.6292 330.428C79.6357 307.653 75.989 289.739 71.5703 278.927Z" fill="#A3734F"/>
</svg>
